# xmcd CD database file
#
# Track frame offsets:
#	150
#	18592
#	37131
#	55808
#	75652
#	95821
#	114699
#	141047
#	159992
#	180016
#	198857
#	232771
#	250811
#
# Disc length: 3596 seconds
#
# Revision: 1
# Processed by: cddbd v1.5.2PL0 Copyright (c) Steve Scherf et al.
# Submitted via: CDex 1.70beta2
#
DISCID=9e0e0a0d
DTITLE=Sonora Carruseles - Maestros de la Salsa Dura
DYEAR=2009
DGENRE=Salsa
TTITLE0=Bang Bang
TTITLE1=Brujería
TTITLE2=Quinto y Trompeta
TTITLE3=El Árbol
TTITLE4=Camina como Chencha (La Gamba)
TTITLE5=Taco de oro
TTITLE6=Mosaico Santero
TTITLE7=Sazonando Montuño
TTITLE8=Confundido
TTITLE9=Rey Piano
TTITLE10=Cumbia Medley
TTITLE11=Carruseles
TTITLE12=Boogaloo Pa' Gozar
EXTD=YEAR: 2009
EXTT0=
EXTT1=
EXTT2=
EXTT3=
EXTT4=
EXTT5=
EXTT6=
EXTT7=
EXTT8=
EXTT9=
EXTT10=
EXTT11=
EXTT12=
PLAYORDER=
